name ./resultDataOpenSim/trcMotMarkerGrf/sub06/grf-05-04.mot
datacolumns 19
datarows 17
range 1.04000000 1.10400000
endheader

                time	     ground_force_vx	     ground_force_vy	     ground_force_vz	     ground_force_px	     ground_force_py	     ground_force_pz	   l_ground_force_vx	   l_ground_force_vy	   l_ground_force_vz	   l_ground_force_px	   l_ground_force_py	   l_ground_force_pz	     ground_torque_x	     ground_torque_y	     ground_torque_z	   l_ground_torque_x	   l_ground_torque_y	   l_ground_torque_z	
          1.04000000	          0.00000000	          0.00000000	          0.00000000	          0.00000000	          0.00000000	          0.00000000	         40.66209531	        349.72658775	          6.73041310	          0.09258467	         -0.10000000	         -0.00840585	          0.00000000	          0.00000000	          0.00000000	          0.00000000	         -0.77989623	          0.00000000	
          1.04400000	          0.00000000	          0.00000000	          0.00000000	          0.00000000	          0.00000000	          0.00000000	         43.91875091	        365.75759872	          7.30793212	          0.09306214	         -0.10000000	         -0.00828144	          0.00000000	          0.00000000	          0.00000000	          0.00000000	         -0.84270096	          0.00000000	
          1.04800000	          0.00000000	          0.00000000	          0.00000000	          0.00000000	          0.00000000	          0.00000000	         47.24601059	        383.98228869	          8.25686185	          0.09356705	         -0.10000000	         -0.00814857	          0.00000000	          0.00000000	          0.00000000	          0.00000000	         -0.89818557	          0.00000000	
          1.05200000	          0.00000000	          0.00000000	          0.00000000	          0.00000000	          0.00000000	          0.00000000	         50.62580783	        404.52472502	          9.59028535	          0.09412140	         -0.10000000	         -0.00797372	          0.00000000	          0.00000000	          0.00000000	          0.00000000	         -0.94484152	          0.00000000	
          1.05600000	          0.00000000	          0.00000000	          0.00000000	          0.00000000	          0.00000000	          0.00000000	         54.06023772	        427.38376098	         11.26535297	          0.09473978	         -0.10000000	         -0.00774899	          0.00000000	          0.00000000	          0.00000000	          0.00000000	         -0.98224423	          0.00000000	
          1.06000000	          0.00000000	          0.00000000	          0.00000000	          0.00000000	          0.00000000	          0.00000000	         57.58704163	        452.39230079	         13.17975147	          0.09541355	         -0.10000000	         -0.00749568	          0.00000000	          0.00000000	          0.00000000	          0.00000000	         -1.01154112	          0.00000000	
          1.06400000	          0.00000000	          0.00000000	          0.00000000	          0.00000000	          0.00000000	          0.00000000	         61.28417890	        479.20896641	         15.19812597	          0.09611861	         -0.10000000	         -0.00723451	          0.00000000	          0.00000000	          0.00000000	          0.00000000	         -1.03545294	          0.00000000	
          1.06800000	          0.00000000	          0.00000000	          0.00000000	          0.00000000	          0.00000000	          0.00000000	         65.25729886	        507.38559978	         17.18653180	          0.09681097	         -0.10000000	         -0.00696445	          0.00000000	          0.00000000	          0.00000000	          0.00000000	         -1.05778563	          0.00000000	
          1.07200000	          0.00000000	          0.00000000	          0.00000000	          0.00000000	          0.00000000	          0.00000000	         69.61706064	        536.45344490	         19.03799741	          0.09745759	         -0.10000000	         -0.00666425	          0.00000000	          0.00000000	          0.00000000	          0.00000000	         -1.08268090	          0.00000000	
          1.07600000	          0.00000000	          0.00000000	          0.00000000	          0.00000000	          0.00000000	          0.00000000	         74.44570794	        565.95627035	         20.68161112	          0.09806283	         -0.10000000	         -0.00632191	          0.00000000	          0.00000000	          0.00000000	          0.00000000	         -1.11390444	          0.00000000	
          1.08000000	          0.00000000	          0.00000000	          0.00000000	          0.00000000	          0.00000000	          0.00000000	         79.76292730	        595.45485360	         22.07506911	          0.09863711	         -0.10000000	         -0.00595759	          0.00000000	          0.00000000	          0.00000000	          0.00000000	         -1.15438014	          0.00000000	
          1.08400000	          0.00000000	          0.00000000	          0.00000000	          0.00000000	          0.00000000	          0.00000000	         85.52692186	        624.54669799	         23.18671176	          0.09919756	         -0.10000000	         -0.00558957	          0.00000000	          0.00000000	          0.00000000	          0.00000000	         -1.20604685	          0.00000000	
          1.08800000	          0.00000000	          0.00000000	          0.00000000	          0.00000000	          0.00000000	          0.00000000	         91.67644039	        652.87410995	         23.98127845	          0.09975951	         -0.10000000	         -0.00523041	          0.00000000	          0.00000000	          0.00000000	          0.00000000	         -1.27001951	          0.00000000	
          1.09200000	          0.00000000	          0.00000000	          0.00000000	          0.00000000	          0.00000000	          0.00000000	         98.16951136	        680.09520152	         24.43302664	          0.10033585	         -0.10000000	         -0.00488099	          0.00000000	          0.00000000	          0.00000000	          0.00000000	         -1.34695131	          0.00000000	
          1.09600000	          0.00000000	          0.00000000	          0.00000000	          0.00000000	          0.00000000	          0.00000000	        104.98673802	        705.84507809	         24.55005415	          0.10093049	         -0.10000000	         -0.00453552	          0.00000000	          0.00000000	          0.00000000	          0.00000000	         -1.43743385	          0.00000000	
          1.10000000	          0.00000000	          0.00000000	          0.00000000	          0.00000000	          0.00000000	          0.00000000	        112.11456400	        729.73432828	         24.36936305	          0.10153975	         -0.10000000	         -0.00418745	          0.00000000	          0.00000000	          0.00000000	          0.00000000	         -1.54225188	          0.00000000	
          1.10400000	          0.00000000	          0.00000000	          0.00000000	          0.00000000	          0.00000000	          0.00000000	        119.52803757	        751.42182651	         23.92830419	          0.10218429	         -0.10000000	         -0.00381924	          0.00000000	          0.00000000	          0.00000000	          0.00000000	         -1.66230652	          0.00000000	
